<?xml version="1.0" encoding="iso-8859-1"?>
<!-- Uploaded to: SVG Repo, www.svgrepo.com, Generator: SVG Repo Mixer Tools -->
<svg version="1.1" id="Layer_1" xmlns="http://www.w3.org/2000/svg" xmlns:xlink="http://www.w3.org/1999/xlink" 
	 viewBox="0 0 512 512" xml:space="preserve">
<path style="fill:#797781;" d="M438.857,67.048H73.143c-20.198,0-36.571,16.373-36.571,36.571v304.762h438.857V103.619
	C475.429,83.421,459.056,67.048,438.857,67.048z"/>
<path style="fill:#58575D;" d="M438.857,67.048h-48.762c20.198,0,36.571,16.373,36.571,36.571v304.762h48.762V103.619
	C475.429,83.421,459.056,67.048,438.857,67.048z"/>
<path style="fill:#88888F;" d="M512,396.19H0l0,0c0,26.93,21.832,48.762,48.762,48.762h414.476
	C490.168,444.952,512,423.12,512,396.19L512,396.19z"/>
<path style="fill:#797781;" d="M463.238,396.19c0,26.93-21.832,48.762-48.762,48.762h48.762c26.93,0,48.762-21.832,48.762-48.762
	H463.238z"/>
<rect x="73.143" y="103.619" style="fill:#B4D8F1;" width="365.714" height="256"/>
<polygon style="fill:#98C8ED;" points="438.857,103.619 73.143,359.619 438.857,359.619 "/>
<g>
	<path style="fill:#F8F8F9;" d="M256,289.517c-3.902,0-7.804-1.485-10.775-4.456c-5.942-5.942-5.942-15.609,0-21.55
		c5.942-5.942,15.609-5.942,21.55,0c5.942,5.942,5.942,15.609,0,21.55C263.804,288.032,259.902,289.517,256,289.517z"/>
	<path style="fill:#F8F8F9;" d="M290.48,248.949c-2.339,0-4.68-0.892-6.465-2.678c-15.448-15.448-40.582-15.448-56.03,0
		c-3.571,3.571-9.36,3.571-12.929,0c-3.571-3.571-3.571-9.36,0-12.929c22.578-22.578,59.312-22.578,81.89,0
		c3.571,3.571,3.571,9.36,0,12.929C295.159,248.055,292.82,248.949,290.48,248.949z"/>
	<path style="fill:#F8F8F9;" d="M324.959,214.469c-2.339,0-4.68-0.892-6.465-2.678c-16.692-16.692-38.888-25.886-62.494-25.886
		s-45.802,9.194-62.494,25.886c-3.571,3.571-9.36,3.571-12.929,0c-3.571-3.571-3.571-9.36,0-12.929
		c20.146-20.147,46.933-31.242,75.425-31.242c28.492,0,55.278,11.096,75.425,31.242c3.571,3.571,3.571,9.36,0,12.929
		C329.639,213.576,327.298,214.469,324.959,214.469z"/>
</g>
</svg>